<svg width="12" height="8" fill="#0052A3" viewBox="0 0 12 8" xmlns="http://www.w3.org/2000/svg"><path d="M1 3.5C0.723858 3.5 0.5 3.72386 0.5 4C0.5 4.27614 0.723858 4.5 1 4.5V3.5ZM11.8536 4.35355C12.0488 4.15829 12.0488 3.84171 11.8536 3.64645L8.67157 0.464466C8.47631 0.269204 8.15973 0.269204 7.96447 0.464466C7.7692 0.659728 7.7692 0.976311 7.96447 1.17157L10.7929 4L7.96447 6.82843C7.7692 7.02369 7.7692 7.34027 7.96447 7.53553C8.15973 7.7308 8.47631 7.7308 8.67157 7.53553L11.8536 4.35355ZM1 4.5H11.5V3.5H1V4.5Z"/></svg>