<svg width="92" height="92" viewBox="0 0 92 92" fill="none" xmlns="http://www.w3.org/2000/svg">
<rect x="8" y="8" width="84" height="84" rx="4" fill="#FCA311"/>
<rect width="84" height="84" rx="4" fill="#14213D"/>
<path d="M42.5 4.5C45.5 4.5 46 5.5 46 6.5C46 7.5 45.5 9 42.5 9" stroke="white"/>
<line x1="2.5" y1="65.5" x2="81.5" y2="65.5" stroke="white" stroke-linecap="square"/>
<line x1="2.70682" y1="65.9798" x2="19.9798" y2="82.2932" stroke="white" stroke-linecap="square"/>
<line x1="20.5" y1="82.5" x2="64.5" y2="82.5" stroke="white" stroke-linecap="square"/>
<line x1="64.5" y1="39.5" x2="64.5" y2="82.5" stroke="white" stroke-linecap="square"/>
<line x1="20.5" y1="39.5" x2="20.5" y2="82.5" stroke="white" stroke-linecap="square"/>
<line x1="20.5" y1="39.5" x2="64.5" y2="39.5" stroke="white" stroke-linecap="square"/>
<line x1="65" y1="82.2929" x2="81.2929" y2="66" stroke="white" stroke-linecap="square"/>
<line x1="50" y1="9.70711" x2="20.7071" y2="39" stroke="white" stroke-linecap="square"/>
<line x1="64.2929" y1="39" x2="35" y2="9.70711" stroke="white" stroke-linecap="square"/>
<line x1="64.2955" y1="76.0609" x2="21.0609" y2="39.7045" stroke="white" stroke-linecap="square"/>
<line x1="64.2948" y1="65.0516" x2="43.0516" y2="46.7052" stroke="white" stroke-linecap="square"/>
<line x1="42.12" y1="46.705" x2="20.705" y2="65.0544" stroke="white" stroke-linecap="square"/>
<line x1="63.5928" y1="39.7047" x2="20.7047" y2="76.0581" stroke="white" stroke-linecap="square"/>
<line x1="56.2929" y1="39" x2="43" y2="25.7071" stroke="white" stroke-linecap="square"/>
<line x1="42" y1="25.7071" x2="28.7071" y2="39" stroke="white" stroke-linecap="square"/>
<line x1="48.2929" y1="39" x2="43" y2="33.7071" stroke="white" stroke-linecap="square"/>
<line x1="42" y1="33.7071" x2="36.7071" y2="39" stroke="white" stroke-linecap="square"/>
<line x1="42.5" y1="82.5" x2="42.5" y2="4.50001" stroke="white" stroke-linecap="square"/>
</svg>
