<svg width="250" height="48" viewBox="0 0 250 48" fill="none" xmlns="http://www.w3.org/2000/svg">
<rect x="8" y="8" width="242" height="40" rx="4" fill="#FCA311"/>
<rect width="242" height="40" rx="4" fill="#14213D"/>
<path d="M12.048 33L19.728 16.2H21.48L29.16 33H27.288L20.232 17.232H20.952L13.896 33H12.048ZM15.072 28.512L15.6 27.072H25.368L25.896 28.512H15.072ZM38.0831 33.12C36.9791 33.12 35.9871 32.872 35.1071 32.376C34.2271 31.864 33.5311 31.128 33.0191 30.168C32.5071 29.208 32.2511 28.048 32.2511 26.688C32.2511 25.312 32.5071 24.152 33.0191 23.208C33.5471 22.248 34.2511 21.52 35.1311 21.024C36.0111 20.528 36.9951 20.28 38.0831 20.28C39.2831 20.28 40.3551 20.552 41.2991 21.096C42.2591 21.624 43.0111 22.368 43.5551 23.328C44.0991 24.288 44.3711 25.408 44.3711 26.688C44.3711 27.952 44.0991 29.072 43.5551 30.048C43.0111 31.008 42.2591 31.76 41.2991 32.304C40.3551 32.848 39.2831 33.12 38.0831 33.12ZM31.5791 33V15.192H33.2831V24.12L33.0431 26.664L33.2111 29.208V33H31.5791ZM37.9631 31.608C38.8591 31.608 39.6591 31.408 40.3631 31.008C41.0671 30.592 41.6271 30.016 42.0431 29.28C42.4591 28.528 42.6671 27.664 42.6671 26.688C42.6671 25.696 42.4591 24.832 42.0431 24.096C41.6271 23.36 41.0671 22.792 40.3631 22.392C39.6591 21.976 38.8591 21.768 37.9631 21.768C37.0671 21.768 36.2591 21.976 35.5391 22.392C34.8351 22.792 34.2751 23.36 33.8591 24.096C33.4591 24.832 33.2591 25.696 33.2591 26.688C33.2591 27.664 33.4591 28.528 33.8591 29.28C34.2751 30.016 34.8351 30.592 35.5391 31.008C36.2591 31.408 37.0671 31.608 37.9631 31.608ZM47.8448 33V20.4H49.5488V33H47.8448ZM48.7088 17.616C48.3568 17.616 48.0608 17.496 47.8208 17.256C47.5808 17.016 47.4608 16.728 47.4608 16.392C47.4608 16.056 47.5808 15.776 47.8208 15.552C48.0608 15.312 48.3568 15.192 48.7088 15.192C49.0608 15.192 49.3568 15.304 49.5968 15.528C49.8368 15.752 49.9568 16.032 49.9568 16.368C49.9568 16.72 49.8368 17.016 49.5968 17.256C49.3728 17.496 49.0768 17.616 48.7088 17.616ZM60.7941 33.12C59.6901 33.12 58.6981 32.872 57.8181 32.376C56.9381 31.864 56.2421 31.128 55.7301 30.168C55.2181 29.208 54.9621 28.048 54.9621 26.688C54.9621 25.312 55.2181 24.152 55.7301 23.208C56.2581 22.248 56.9621 21.52 57.8421 21.024C58.7221 20.528 59.7061 20.28 60.7941 20.28C61.9941 20.28 63.0661 20.552 64.0101 21.096C64.9701 21.624 65.7221 22.368 66.2661 23.328C66.8101 24.288 67.0821 25.408 67.0821 26.688C67.0821 27.952 66.8101 29.072 66.2661 30.048C65.7221 31.008 64.9701 31.76 64.0101 32.304C63.0661 32.848 61.9941 33.12 60.7941 33.12ZM54.2901 33V15.192H55.9941V24.12L55.7541 26.664L55.9221 29.208V33H54.2901ZM60.6741 31.608C61.5701 31.608 62.3701 31.408 63.0741 31.008C63.7781 30.592 64.3381 30.016 64.7541 29.28C65.1701 28.528 65.3781 27.664 65.3781 26.688C65.3781 25.696 65.1701 24.832 64.7541 24.096C64.3381 23.36 63.7781 22.792 63.0741 22.392C62.3701 21.976 61.5701 21.768 60.6741 21.768C59.7781 21.768 58.9701 21.976 58.2501 22.392C57.5461 22.792 56.9861 23.36 56.5701 24.096C56.1701 24.832 55.9701 25.696 55.9701 26.688C55.9701 27.664 56.1701 28.528 56.5701 29.28C56.9861 30.016 57.5461 30.592 58.2501 31.008C58.9701 31.408 59.7781 31.608 60.6741 31.608ZM78.3814 33V30.216L78.3094 29.76V25.104C78.3094 24.032 78.0054 23.208 77.3974 22.632C76.8054 22.056 75.9174 21.768 74.7334 21.768C73.9174 21.768 73.1414 21.904 72.4054 22.176C71.6694 22.448 71.0454 22.808 70.5334 23.256L69.7654 21.984C70.4054 21.44 71.1734 21.024 72.0694 20.736C72.9654 20.432 73.9094 20.28 74.9014 20.28C76.5334 20.28 77.7894 20.688 78.6694 21.504C79.5654 22.304 80.0134 23.528 80.0134 25.176V33H78.3814ZM74.0374 33.12C73.0934 33.12 72.2694 32.968 71.5654 32.664C70.8774 32.344 70.3494 31.912 69.9814 31.368C69.6134 30.808 69.4294 30.168 69.4294 29.448C69.4294 28.792 69.5814 28.2 69.8854 27.672C70.2054 27.128 70.7174 26.696 71.4214 26.376C72.1414 26.04 73.1014 25.872 74.3014 25.872H78.6454V27.144H74.3494C73.1334 27.144 72.2854 27.36 71.8054 27.792C71.3414 28.224 71.1094 28.76 71.1094 29.4C71.1094 30.12 71.3894 30.696 71.9494 31.128C72.5094 31.56 73.2934 31.776 74.3014 31.776C75.2614 31.776 76.0854 31.56 76.7734 31.128C77.4774 30.68 77.9894 30.04 78.3094 29.208L78.6934 30.384C78.3734 31.216 77.8134 31.88 77.0134 32.376C76.2294 32.872 75.2374 33.12 74.0374 33.12ZM84.6416 33V15.192H86.3456V33H84.6416ZM91.0869 33V15.192H92.7909V33H91.0869ZM105.758 23.712H114.638V25.224H105.758V23.712ZM105.95 31.464H116.054V33H104.174V16.2H115.694V17.736H105.95V31.464ZM122.85 33L117.258 20.4H119.034L124.17 32.088H123.33L128.538 20.4H130.218L124.602 33H122.85ZM140.139 33V30.216L140.067 29.76V25.104C140.067 24.032 139.763 23.208 139.155 22.632C138.563 22.056 137.675 21.768 136.491 21.768C135.675 21.768 134.899 21.904 134.163 22.176C133.427 22.448 132.803 22.808 132.291 23.256L131.523 21.984C132.163 21.44 132.931 21.024 133.827 20.736C134.723 20.432 135.667 20.28 136.659 20.28C138.291 20.28 139.547 20.688 140.427 21.504C141.323 22.304 141.771 23.528 141.771 25.176V33H140.139ZM135.795 33.12C134.851 33.12 134.027 32.968 133.323 32.664C132.635 32.344 132.107 31.912 131.739 31.368C131.371 30.808 131.187 30.168 131.187 29.448C131.187 28.792 131.339 28.2 131.643 27.672C131.963 27.128 132.475 26.696 133.179 26.376C133.899 26.04 134.859 25.872 136.059 25.872H140.403V27.144H136.107C134.891 27.144 134.043 27.36 133.563 27.792C133.099 28.224 132.867 28.76 132.867 29.4C132.867 30.12 133.147 30.696 133.707 31.128C134.267 31.56 135.051 31.776 136.059 31.776C137.019 31.776 137.843 31.56 138.531 31.128C139.235 30.68 139.747 30.04 140.067 29.208L140.451 30.384C140.131 31.216 139.571 31.88 138.771 32.376C137.987 32.872 136.995 33.12 135.795 33.12ZM151.391 33.144C150.143 33.144 148.943 32.944 147.791 32.544C146.655 32.128 145.775 31.6 145.151 30.96L145.847 29.592C146.439 30.168 147.231 30.656 148.223 31.056C149.231 31.44 150.287 31.632 151.391 31.632C152.447 31.632 153.303 31.504 153.959 31.248C154.631 30.976 155.119 30.616 155.423 30.168C155.743 29.72 155.903 29.224 155.903 28.68C155.903 28.024 155.711 27.496 155.327 27.096C154.959 26.696 154.471 26.384 153.863 26.16C153.255 25.92 152.583 25.712 151.847 25.536C151.111 25.36 150.375 25.176 149.639 24.984C148.903 24.776 148.223 24.504 147.599 24.168C146.991 23.832 146.495 23.392 146.111 22.848C145.743 22.288 145.559 21.56 145.559 20.664C145.559 19.832 145.775 19.072 146.207 18.384C146.655 17.68 147.335 17.12 148.247 16.704C149.159 16.272 150.327 16.056 151.751 16.056C152.695 16.056 153.631 16.192 154.559 16.464C155.487 16.72 156.287 17.08 156.959 17.544L156.359 18.96C155.639 18.48 154.871 18.128 154.055 17.904C153.255 17.68 152.479 17.568 151.727 17.568C150.719 17.568 149.887 17.704 149.231 17.976C148.575 18.248 148.087 18.616 147.767 19.08C147.463 19.528 147.311 20.04 147.311 20.616C147.311 21.272 147.495 21.8 147.863 22.2C148.247 22.6 148.743 22.912 149.351 23.136C149.975 23.36 150.655 23.56 151.391 23.736C152.127 23.912 152.855 24.104 153.575 24.312C154.311 24.52 154.983 24.792 155.591 25.128C156.215 25.448 156.711 25.88 157.079 26.424C157.463 26.968 157.655 27.68 157.655 28.56C157.655 29.376 157.431 30.136 156.983 30.84C156.535 31.528 155.847 32.088 154.919 32.52C154.007 32.936 152.831 33.144 151.391 33.144ZM166.397 33.12C165.149 33.12 164.029 32.848 163.037 32.304C162.061 31.744 161.293 30.984 160.733 30.024C160.173 29.048 159.893 27.936 159.893 26.688C159.893 25.424 160.173 24.312 160.733 23.352C161.293 22.392 162.061 21.64 163.037 21.096C164.029 20.552 165.149 20.28 166.397 20.28C167.469 20.28 168.437 20.488 169.301 20.904C170.165 21.32 170.845 21.944 171.341 22.776L170.069 23.64C169.637 23 169.101 22.528 168.461 22.224C167.821 21.92 167.125 21.768 166.373 21.768C165.477 21.768 164.669 21.976 163.949 22.392C163.229 22.792 162.661 23.36 162.245 24.096C161.829 24.832 161.621 25.696 161.621 26.688C161.621 27.68 161.829 28.544 162.245 29.28C162.661 30.016 163.229 30.592 163.949 31.008C164.669 31.408 165.477 31.608 166.373 31.608C167.125 31.608 167.821 31.456 168.461 31.152C169.101 30.848 169.637 30.384 170.069 29.76L171.341 30.624C170.845 31.44 170.165 32.064 169.301 32.496C168.437 32.912 167.469 33.12 166.397 33.12ZM180.933 20.28C181.957 20.28 182.853 20.48 183.621 20.88C184.405 21.264 185.013 21.856 185.445 22.656C185.893 23.456 186.117 24.464 186.117 25.68V33H184.413V25.848C184.413 24.52 184.077 23.52 183.405 22.848C182.749 22.16 181.821 21.816 180.621 21.816C179.725 21.816 178.941 22 178.269 22.368C177.613 22.72 177.101 23.24 176.733 23.928C176.381 24.6 176.205 25.416 176.205 26.376V33H174.501V15.192H176.205V23.856L175.869 23.208C176.269 22.296 176.909 21.584 177.789 21.072C178.669 20.544 179.717 20.28 180.933 20.28ZM195.928 33.12C194.856 33.12 193.92 32.92 193.12 32.52C192.32 32.12 191.696 31.52 191.248 30.72C190.816 29.92 190.6 28.92 190.6 27.72V20.4H192.304V27.528C192.304 28.872 192.632 29.888 193.288 30.576C193.96 31.248 194.896 31.584 196.096 31.584C196.976 31.584 197.736 31.408 198.376 31.056C199.032 30.688 199.528 30.16 199.864 29.472C200.216 28.784 200.392 27.96 200.392 27V20.4H202.096V33H200.464V29.544L200.728 30.168C200.328 31.096 199.704 31.824 198.856 32.352C198.024 32.864 197.048 33.12 195.928 33.12ZM206.845 33V15.192H208.549V33H206.845ZM211.922 33V31.872L220.322 21.24L220.682 21.816H212.066V20.4H222.026V21.504L213.65 32.16L213.218 31.584H222.194V33H211.922ZM230.689 33.12C229.377 33.12 228.225 32.848 227.233 32.304C226.241 31.744 225.465 30.984 224.905 30.024C224.345 29.048 224.065 27.936 224.065 26.688C224.065 25.44 224.329 24.336 224.857 23.376C225.401 22.416 226.137 21.664 227.065 21.12C228.009 20.56 229.065 20.28 230.233 20.28C231.417 20.28 232.465 20.552 233.377 21.096C234.305 21.624 235.033 22.376 235.561 23.352C236.089 24.312 236.353 25.424 236.353 26.688C236.353 26.768 236.345 26.856 236.329 26.952C236.329 27.032 236.329 27.12 236.329 27.216H225.361V25.944H235.417L234.745 26.448C234.745 25.536 234.545 24.728 234.145 24.024C233.761 23.304 233.233 22.744 232.561 22.344C231.889 21.944 231.113 21.744 230.233 21.744C229.369 21.744 228.593 21.944 227.905 22.344C227.217 22.744 226.681 23.304 226.297 24.024C225.913 24.744 225.721 25.568 225.721 26.496V26.76C225.721 27.72 225.929 28.568 226.345 29.304C226.777 30.024 227.369 30.592 228.121 31.008C228.889 31.408 229.761 31.608 230.737 31.608C231.505 31.608 232.217 31.472 232.873 31.2C233.545 30.928 234.121 30.512 234.601 29.952L235.561 31.056C235.001 31.728 234.297 32.24 233.449 32.592C232.617 32.944 231.697 33.12 230.689 33.12Z" fill="#FCA311"/>
</svg>
